<svg width="56px" height="56px" viewBox="0 0 56 56" version="1.1" xmlns="http://www.w3.org/2000/svg">
    <defs>
        <linearGradient x1="50%" y1="0%" x2="50%" y2="100%" id="linearGradient-1">
            <stop stop-color="#00F2C9" offset="0%"></stop>
            <stop stop-color="#00E198" offset="100%"></stop>
        </linearGradient>
        <linearGradient x1="50%" y1="0%" x2="50%" y2="100%" id="linearGradient-2">
            <stop stop-color="#00F2C9" offset="0%"></stop>
            <stop stop-color="#00E198" offset="100%"></stop>
        </linearGradient>
    </defs>
    <g stroke="none" stroke-width="1" fill="none" fill-rule="evenodd">
        <g transform="translate(-629.000000, -383.000000)">
            <g transform="translate(551.000000, 349.000000)">
                <g transform="translate(78.000000, 34.000000)">
                    <g>
                        <rect fill="#E9FEEB" x="0" y="0" width="56" height="56" rx="10"></rect>
                        <g transform="translate(12.000000, 13.000000)" fill-rule="nonzero">
                            <path d="M3.97934938,2.16054575 C6.25326332,0.866842389 9.23777535,0.148228272 12.5065266,0.148228272 C15.6331583,0.148228272 18.333431,0.866842389 20.607345,2.01603106 C22.7391393,3.16620955 24.5866944,4.89048749 24.8709336,7.18886484 C25.0130532,7.90747896 24.4445747,8.76961791 23.7339766,8.91314275 C23.0233785,9.05666759 22.1706608,8.4825682 22.0285412,7.76395408 C21.8864215,6.75829025 21.0337038,5.60811177 19.1861488,4.74696262 C17.4807133,3.88482366 15.0646798,3.30973442 12.364407,3.30973442 C9.52201458,3.30973442 6.96386142,4.02834854 5.25842597,5.03401233 C3.55299052,5.75262645 2.8423924,6.90181512 2.8423924,7.90747892 C2.8423924,8.76961788 3.26875126,9.77528171 4.54782784,10.6374207 C5.6847848,11.4995596 7.39022024,12.2181737 9.52201458,12.6487483 C10.2326127,12.793263 10.8010912,13.5108873 10.6589715,14.3730262 C10.5168519,15.0916403 9.80625381,15.6667296 8.95353609,15.5232047 C6.82174178,15.0916403 4.83206711,14.3730262 3.26875126,13.3673624 C3.26875126,13.3673624 3.26875126,13.5108873 3.12663166,13.5108873 C2.98451203,13.9424517 2.84239243,14.2295014 2.8423924,14.6610658 C2.8423924,15.5222149 3.26875126,16.3853437 4.54782784,17.3910075 C5.6847848,18.2521566 7.39022024,18.9707707 9.52201458,19.4023351 C10.2326127,19.54586 10.8010912,20.2634843 10.6589715,21.1266131 C10.5168519,21.8452272 9.80625381,22.4193266 8.95353609,22.2758017 C6.67962215,21.8452272 4.68994748,21.1266131 3.12663166,19.9774244 C2.98451203,20.2644741 2.84239243,20.6950487 2.8423924,21.1256232 C2.8423924,22.1322769 3.55299049,23.1379407 5.11630634,24.1445943 C6.67962215,25.1492683 8.95353609,25.8678824 11.5116893,26.0114073 C12.2222874,26.0114073 12.7907658,26.7300214 12.7907658,27.4486355 C12.7907658,28.3107744 12.0801678,28.8858637 11.22745,28.741349 C8.242938,28.5978242 5.5426652,27.7356852 3.55299052,26.4429717 C1.56331581,25.293783 0,23.4249904 0,21.1266131 C0,20.1209492 0.28423923,19.2588103 0.710598091,18.3966713 L1.13695695,17.9651069 C0.426358861,16.9594431 0,15.9547691 0,14.6610658 C0,13.6554019 0.28423923,12.793263 0.710598091,11.931124 C0.852717723,11.6440743 0.994837321,11.4995596 1.27907658,11.3560348 C0.426358861,10.4938958 0,9.34470715 0,7.90747892 C0,5.46458689 1.70543545,3.45325926 3.97934938,2.16054575 Z" fill="url(#linearGradient-1)"></path>
                            <path d="M34,16.7044678 C34,14.5515704 32.4416667,12.8278681 30.6,11.8241057 C28.6166667,10.6749708 26.0666667,10.1013923 23.375,10.1013923 C20.6833333,10.1013923 18.1333333,10.6749708 16.15,11.8241057 C14.3083333,12.8288571 12.75,14.5515705 12.75,16.7044678 C12.75,17.7092192 13.175,18.7139705 13.7416667,19.4319326 C13.175,20.1498947 12.75,21.0112514 12.75,22.1593974 C12.75,24.3132837 14.3083333,26.0359971 16.15,27.0407485 C18.4015837,28.1837218 20.8727909,28.7729511 23.375,28.7634619 C26.2083333,28.7634619 28.6166667,28.1888944 30.6,27.0407485 C32.4416667,26.0359971 34,24.3132837 34,22.1593974 C34,21.0112514 33.575,20.1498947 33.15,19.4319326 C33.575,18.7139705 34,17.7092192 34,16.7044678 L34,16.7044678 Z M29.1833333,24.6000729 C27.7666666,25.4604407 25.6416666,25.8916135 23.375,25.8916135 C21.1083333,25.8916135 18.9833333,25.318035 17.5666667,24.6000729 C16.15,23.7387162 15.5833334,22.8773595 15.5833333,22.1593974 C15.5833333,21.8726081 15.5833333,21.7292135 15.8666667,21.4414353 C17.85,22.5905702 20.5416667,23.3075434 23.375,23.3075434 C26.2083333,23.3075434 28.9,22.5905702 30.8833333,21.4414353 C31.025,21.7282246 31.1666666,21.8726081 31.1666667,22.1593974 C31.1666667,22.8773595 30.6,23.7387162 29.1833333,24.6000729 Z M30.3166667,18.2837866 C29.0416667,19.4319326 26.4916667,20.436684 23.375,20.436684 C20.4,20.436684 17.9916667,19.5763162 16.7166667,18.5705759 L16.575,18.4271812 L16.4333333,18.2837866 C15.8666666,17.7102081 15.5833333,17.1356406 15.5833333,16.7044678 C15.5833333,15.9865057 16.15,15.125149 17.5666667,14.2637923 C18.9833334,13.4034245 21.1083334,12.9722517 23.375,12.9722517 C25.6416667,12.9722517 27.7666667,13.5458302 29.1833333,14.2637923 C30.6,15.125149 31.1666666,15.9865057 31.1666667,16.7044678 C31.1666667,17.1356406 30.8833334,17.7092192 30.3166667,18.2837866 L30.3166667,18.2837866 Z" fill="url(#linearGradient-2)"></path>
                        </g>
                    </g>
                </g>
            </g>
        </g>
    </g>
</svg>
