<svg width="56px" height="56px" viewBox="0 0 56 56" version="1.1" xmlns="http://www.w3.org/2000/svg">
    <g stroke="none" stroke-width="1" fill="none" fill-rule="evenodd">
        <g transform="translate(-885.000000, -383.000000)">
            <g transform="translate(807.000000, 349.000000)">
                <g transform="translate(78.000000, 34.000000)">
                    <g>
                        <rect fill="#F6F1FF" x="0" y="0" width="56" height="56" rx="10"></rect>
                        <g transform="translate(16.000000, 14.000000)">
                            <g>
                                <g>
                                    <g>
                                        <path d="M13.0073455,26.5 L23.5,11.6971038 L23.5,4 C23.5,2.61928813 22.3807119,1.5 21,1.5 L4,1.5 C2.61928813,1.5 1.5,2.61928813 1.5,4 L1.5,24 C1.5,25.3807119 2.61928813,26.5 4,26.5 L13.0073455,26.5 Z" stroke="#EF70FF" stroke-width="3"></path>
                                        <path d="M28,24.4070112 C28,26.387576 26.394435,27.9931409 24.4138702,27.9931409 C22.4333055,27.9931409 20.8277405,26.387576 20.8277405,24.4070112 L20.8277405,23.6550201 C18.3776201,23.2014178 16.5997978,21.0644623 16.5995526,18.5727069 L16.5995526,17.0975391 C16.6012783,16.5798374 17.0214453,16.1610709 17.5391499,16.1610738 L19.3557047,16.1610738 C19.87463,16.1610738 20.295302,16.5817459 20.295302,17.1006711 C20.295302,17.6195964 19.87463,18.0402685 19.3557047,18.0402685 L18.4787472,18.0402685 L18.4787472,18.5727069 C18.4787472,20.3889454 19.9510994,21.8612975 21.7673378,21.8612975 C23.5835762,21.8612975 25.0559284,20.3889454 25.0559284,18.5727069 L25.0559284,18.0402685 L24.1789709,18.0402685 C23.6600456,18.0402685 23.2393736,17.6195964 23.2393736,17.1006711 C23.2393736,16.5817459 23.6600456,16.1610738 24.1789709,16.1610738 L25.9955257,16.1610738 C26.5132303,16.1610709 26.9333974,16.5798374 26.935123,17.0975391 L26.935123,18.5727069 C26.9348778,21.0644623 25.1570555,23.2014178 22.7069351,23.6550201 L22.7069351,24.4138702 C22.7069351,25.3565845 23.471156,26.1208054 24.4138702,26.1208054 C25.3565845,26.1208054 26.1208054,25.3565845 26.1208054,24.4138702 L26.1208054,24.2416107 L26.1208054,24.2347517 C26.1208054,23.7158264 26.5414774,23.2951544 27.0604027,23.2951544 C27.579328,23.2951544 28,23.7158264 28,24.2347517 C28,24.2370694 28,24.2393244 27.9998121,24.2416107 L28,24.2416107 L28,24.4070112 Z" stroke="#EF70FF" stroke-width="0.5" fill="#EF70FF"></path>
                                        <rect fill="#EF70FF" fill-rule="nonzero" x="4.2" y="6" width="14" height="3"></rect>
                                        <rect fill="#EF70FF" fill-rule="nonzero" x="4.2" y="12" width="11.2" height="3"></rect>
                                        <rect fill="#EF70FF" fill-rule="nonzero" x="4.2" y="18" width="8.4" height="3"></rect>
                                    </g>
                                </g>
                            </g>
                        </g>
                    </g>
                </g>
            </g>
        </g>
    </g>
</svg>
