<svg width="56px" height="56px" viewBox="0 0 56 56" version="1.1" xmlns="http://www.w3.org/2000/svg">
    <defs>
        <linearGradient x1="50%" y1="0%" x2="50%" y2="100%" id="linearGradient-1">
            <stop stop-color="#00E8FF" offset="0%"></stop>
            <stop stop-color="#00C2FF" offset="100%"></stop>
        </linearGradient>
    </defs>
    <g stroke="none" stroke-width="1" fill="none" fill-rule="evenodd">
        <g transform="translate(-373.000000, -383.000000)">
            <g transform="translate(295.000000, 349.000000)">
                <g transform="translate(78.000000, 34.000000)">
                    <g>
                        <rect fill="#EDF7FF" x="0" y="0" width="56" height="56" rx="10"></rect>
                        <g transform="translate(12.500000, 14.000000)" fill="url(#linearGradient-1)" fill-rule="nonzero">
                            <path d="M13.12402,16.535593 L12.1734315,17.4534361 C12.3695958,18.1605592 12.1600979,18.9150135 11.6238725,19.4325355 L10.123725,20.8820311 C9.29514317,21.6818288 7.95201191,21.6818288 7.12343006,20.8820311 L1.12177923,15.0871217 C0.723669358,14.7028814 0.5,14.1816463 0.5,13.6381383 C0.5,13.0946303 0.723669358,12.5733952 1.12177923,12.1891549 L2.62192671,10.7406836 C3.15791198,10.2229298 3.93928251,10.0206485 4.67163316,10.2100555 L11.0743135,4.0279311 C10.8781492,3.32080805 11.0876471,2.56635373 11.6238725,2.04883178 L13.12402,0.600360531 C13.5219686,0.215964522 14.0617995,-2.27457726e-16 14.6246979,0 C15.1875963,2.27457726e-16 15.7274272,0.215964522 16.1253759,0.600360531 L22.1270267,6.39424551 C22.9553583,7.19428484 22.9553583,8.49114867 22.1270267,9.291188 L20.6258183,10.7396592 C20.089833,11.2574131 19.3084625,11.4596943 18.5761118,11.2702873 L17.6255233,12.1881305 L28.8787513,23.0537136 C29.7070829,23.8537529 29.7070829,25.1506167 28.8787513,25.9506561 L27.3775429,27.4001517 C26.548961,28.1999494 25.2058298,28.1999494 24.3772479,27.4001517 L13.12402,16.535593 Z M10.8737988,15.8113574 L16.8754496,10.016448 L12.3739462,5.67000989 L6.3722954,11.4649192 L10.8737988,15.8113574 Z M15.3753021,2.7730674 C15.108931,2.50677345 14.7144756,2.39997583 14.3435451,2.49372228 C13.9726146,2.58746874 13.6829345,2.86717013 13.5858435,3.22532302 C13.4887525,3.5834759 13.5993603,3.96434334 13.8751546,4.22153864 L18.3755971,8.56797675 C18.7918815,8.95618775 19.4535865,8.95063579 19.862821,8.55549836 C20.2720555,8.16036094 20.2778055,7.52145002 19.8757445,7.11950551 L15.376363,2.7730674 L15.3753021,2.7730674 Z M4.87214792,12.9144149 C4.45586348,12.5262039 3.79415852,12.5317558 3.38492402,12.9268933 C2.97568952,13.3220307 2.96993948,13.9609416 3.37200045,14.3628861 L7.8735038,18.7082998 C8.28978824,19.0965108 8.95149321,19.0909589 9.36072771,18.6958215 C9.76996221,18.300684 9.77571225,17.6617731 9.37365128,17.2598286 L4.87214792,12.9133905 L4.87214792,12.9144149 Z M17.6255233,15.085073 C17.2106831,14.6850887 16.5385692,14.6855473 16.1243149,15.0860974 C15.7100606,15.4866474 15.7105356,16.1356087 16.1253759,16.535593 L25.1273216,25.2274448 C25.5436061,25.6156558 26.205311,25.6101039 26.6145455,25.2149664 C27.02378,24.819829 27.0295301,24.1809181 26.6274691,23.7789736 L17.6255233,15.0871217 L17.6255233,15.085073 Z M3.83350268,25.7549998 L18.686448,25.7549998 C19.2723805,25.7549998 19.7473727,26.2136297 19.7473727,26.7793783 C19.7473727,27.3451269 19.2723805,27.8037568 18.686448,27.8037568 L3.83350268,27.8037568 C3.24757016,27.8037568 2.77257801,27.3451269 2.77257801,26.7793783 C2.77257801,26.2136297 3.24757016,25.7549998 3.83350268,25.7549998 Z"></path>
                        </g>
                    </g>
                </g>
            </g>
        </g>
    </g>
</svg>
