<svg width="56px" height="56px" viewBox="0 0 56 56" version="1.1" xmlns="http://www.w3.org/2000/svg">
    <g stroke="none" stroke-width="1" fill="none" fill-rule="evenodd">
        <g transform="translate(-1143.000000, -383.000000)">
            <g transform="translate(1063.000000, 349.000000)">
                <g transform="translate(80.000000, 34.000000)">
                    <g>
                        <rect fill="#FFF5EA" x="0" y="0" width="56" height="56" rx="10"></rect>
                        <g transform="translate(14.000000, 12.000000)" fill="#FF8D4E" fill-rule="nonzero">
                            <path d="M29.3612408,21.504329 C28.9941855,20.6818182 28.2181259,19.5183983 26.6083265,18.6147186 C24.9565779,17.6893939 23.561768,17.7056277 21.086767,17.7056277 L14.9464573,17.7056277 L9.14174089,15 L0.46875,15 L0.46875,30 L15.6071567,30 L28.4488463,24.0151515 C28.8945563,23.8095238 29.2458806,23.4199134 29.4189209,22.9437229 C29.5867176,22.4729437 29.565743,21.9588745 29.3612408,21.504329 Z M15.0408429,27.2943723 L3.09057312,27.2943723 L3.09057312,17.7056277 L8.5754271,17.7056277 L13.5254292,20.0162338 L13.4257999,20.04329 L8.36568125,20.04329 L8.36568125,22.7489178 L13.7928551,22.7489178 L21.1234726,20.5952381 C22.5916935,20.1623377 24.1385691,20.3084416 25.3603387,20.9902598 C25.9004343,21.2932901 26.2727332,21.6287879 26.5296718,21.9372294 L15.0408429,27.2943723 L15.0408429,27.2943723 Z"></path>
                            <path d="M24.4762136,19.6875 L22.537297,17.8706827 C24.1193251,16.191986 24.992903,13.9926808 24.992903,11.687129 C24.992903,6.70947448 20.9286353,2.65616567 15.937523,2.65616567 C10.9464106,2.65616567 6.88214303,6.70947451 6.88214303,11.687129 C6.88214303,13.0152118 7.1644578,14.2901713 7.71843398,15.4854459 L5.30011488,16.6010355 C4.58314879,15.061821 4.21400826,13.3843121 4.21879598,11.687129 C4.21879598,5.24327105 9.47624306,0 15.937523,0 C22.3988029,0 27.65625,5.24327105 27.65625,11.687129 C27.65625,14.6673469 26.5269908,17.5094441 24.4762136,19.6875 L24.4762136,19.6875 Z"></path>
                            <polygon points="20.15625 10.993346 20.15625 8.85456275 18.2510081 8.85456275 19.9983871 7.13818916 18.4633065 5.625 15.9375 8.10598859 13.4116935 5.625 11.8711693 7.13818916 13.6185484 8.85456275 11.71875 8.85456275 11.71875 10.993346 14.8487903 10.993346 14.8487903 12.0627376 11.71875 12.0627376 11.71875 14.2015209 14.8487903 14.2015209 14.8487903 16.875 17.0262097 16.875 17.0262097 14.2015209 20.15625 14.2015209 20.15625 12.0627376 17.0262097 12.0627376 17.0262097 10.993346"></polygon>
                        </g>
                    </g>
                </g>
            </g>
        </g>
    </g>
</svg>
