<?xml version="1.0" encoding="UTF-8"?>
<svg width="50px" height="50px" viewBox="0 0 50 50" version="1.1" xmlns="http://www.w3.org/2000/svg">
    <g id="Page-1" stroke="none" stroke-width="1" fill="none" fill-rule="evenodd">
        <g transform="translate(-1360.000000, -1130.000000)">
            <g transform="translate(770.000000, 798.000000)">
                <g>
                    <g transform="translate(590.000000, 332.000000)">
                        <path d="M1.0906831e-12,50 L45.9928103,50 C48.2059201,50 50,48.2057317 50,45.9928103 L50,7.85149723e-13 L1.0906831e-12,50 Z" fill="#3B5EFE"></path>
                        <g transform="translate(27.000000, 28.000000)" fill="#FFFFFF" fill-rule="nonzero">
                            <path d="M11.5812384,16.0113931 L3.61407356,16.0113931 C2.59644213,16.0113931 1.7685051,15.1874081 1.7685051,14.1796566 L1.7685051,3.12402968 C1.7685051,2.78416055 2.04316679,2.50949886 2.38303593,2.50949886 L12.8142521,2.50949886 C13.1541212,2.50949886 13.4287829,2.78416055 13.4287829,3.12402968 L13.4287829,14.1776806 C13.4268069,15.189384 12.6008459,16.0113931 11.5812384,16.0113931 Z M2.99756675,3.74053649 L2.99756675,14.1796566 C2.99756675,14.5135977 3.27222844,14.7823315 3.61209757,14.7823315 L11.5812384,14.7823315 C11.9211076,14.7823315 12.1957693,14.5116218 12.1957693,14.1796566 L12.1957693,3.74053649 L2.99756675,3.74053649 Z"></path>
                            <path d="M14.5689253,3.74053649 L0.62441074,3.74053649 C0.284541603,3.74053649 0.00987991678,3.4658748 0.00987991678,3.12600567 C0.00987991678,2.78613653 0.284541603,2.51147484 0.62441074,2.51147484 L14.5689253,2.51147484 C14.9087944,2.51147484 15.1834561,2.78613653 15.1834561,3.12600567 C15.1854321,3.46192284 14.9087944,3.74053649 14.5689253,3.74053649 Z"></path>
                            <path d="M10.6722861,3.74053649 L4.52104992,3.74053649 C4.32542756,3.74053649 4.14166111,3.64766527 4.02705408,3.4895866 C3.91047106,3.33150794 3.87687934,3.12995763 3.93418286,2.9442152 L4.7008644,0.450524205 C4.78187972,0.191670385 5.01899772,0.0158078668 5.28773146,0.0158078668 L9.90165259,0.0158078668 C10.1723623,0.0158078668 10.4094803,0.191670385 10.4885196,0.450524205 L11.2591532,2.9442152 C11.3164567,3.12995763 11.282865,3.33348392 11.1662819,3.4895866 C11.0516749,3.64766527 10.8698844,3.74053649 10.6722861,3.74053649 Z M5.35491489,2.50949886 L9.84039711,2.50949886 L9.45112839,1.24486951 L5.74418361,1.24486951 L5.35491489,2.50949886 Z M5.95758982,13.1580732 C5.61772068,13.1580732 5.34305899,12.8834115 5.34305899,12.5435423 L5.34305899,5.97734965 C5.34305899,5.63748051 5.61772068,5.36281883 5.95758982,5.36281883 C6.29745895,5.36281883 6.57212064,5.63748051 6.57212064,5.97734965 L6.57212064,12.5395904 C6.57014466,12.8794595 6.29548297,13.1580732 5.95758982,13.1580732 Z M9.23772218,13.1580732 C8.89785305,13.1580732 8.62319136,12.8834115 8.62319136,12.5435423 L8.62319136,5.97734965 C8.62319136,5.63748051 8.89785305,5.36281883 9.23772218,5.36281883 C9.57759132,5.36281883 9.85225301,5.63748051 9.85225301,5.97734965 L9.85225301,12.5395904 C9.85422899,12.8794595 9.57561534,13.1580732 9.23772218,13.1580732 Z"></path>
                        </g>
                    </g>
                </g>
            </g>
        </g>
    </g>
</svg>
