<svg width="16px" height="17px" viewBox="0 0 16 17" version="1.1" xmlns="http://www.w3.org/2000/svg">
    <g id="Page-1" stroke="none" stroke-width="1" fill="none" fill-rule="evenodd">
        <g transform="translate(-1305.000000, -716.000000)" fill="#FFFFFF" fill-rule="nonzero">
            <g transform="translate(260.000000, 611.000000)">
                <g>
                    <g transform="translate(30.000000, 96.000000)">
                        <g transform="translate(996.000000, 0.000000)">
                            <g transform="translate(19.000000, 9.000000)">
                                <g>
                                    <path d="M5.21266968,14.9087302 L1.73755656,14.9087302 C1.41900452,14.9087302 1.15837104,14.6506944 1.15837104,14.3353175 L1.15837104,1.7202381 C1.15837104,1.40486111 1.41900452,1.1468254 1.73755656,1.1468254 L13.321267,1.1468254 C13.639819,1.1468254 13.9004525,1.40486111 13.9004525,1.7202381 L13.9004525,6.30753968 C13.9004525,6.62291667 14.161086,6.88095238 14.479638,6.88095238 C14.79819,6.88095238 15.0588235,6.62291667 15.0588235,6.30753968 L15.0588235,1.7202381 C15.0588235,0.774107143 14.2769231,0 13.321267,0 L1.73755656,0 C0.781900452,0 0,0.774107143 0,1.7202381 L0,14.3353175 C0,15.2814484 0.781900452,16.0555556 1.73755656,16.0555556 L5.21266968,16.0555556 C5.53122172,16.0555556 5.7918552,15.7975198 5.7918552,15.4821429 C5.7918552,15.1667659 5.53122172,14.9087302 5.21266968,14.9087302 Z"></path>
                                    <path d="M11.2941176,4.36805556 C11.2941176,4.04340278 11.0558824,3.77777778 10.7647059,3.77777778 L3.35294118,3.77777778 C3.06176471,3.77777778 2.82352941,4.04340278 2.82352941,4.36805556 C2.82352941,4.69270833 3.06176471,4.95833333 3.35294118,4.95833333 L10.7647059,4.95833333 C11.0558824,4.95833333 11.2941176,4.69270833 11.2941176,4.36805556 Z M3.35294118,7.31944444 C3.06176471,7.31944444 2.82352941,7.58506944 2.82352941,7.90972222 C2.82352941,8.234375 3.06176471,8.5 3.35294118,8.5 L4.94117647,8.5 C5.23235294,8.5 5.47058824,8.234375 5.47058824,7.90972222 C5.47058824,7.58506944 5.23235294,7.31944444 4.94117647,7.31944444 L3.35294118,7.31944444 Z"></path>
                                    <path d="M15.8263658,16.0133457 L14.8134994,14.9976723 C16.4340856,12.9663253 16.2893904,10.0063625 14.4372919,8.12011173 C13.4244255,7.10443824 12.1221688,6.61111111 10.790973,6.61111111 C9.4597772,6.61111111 8.15752045,7.10443824 7.14465409,8.12011173 C5.1478604,10.1224395 5.1478604,13.4016139 7.14465409,15.4329609 C8.15752045,16.4486344 9.4597772,16.9419615 10.790973,16.9419615 C11.9195955,16.9419615 13.048218,16.5647114 14.0032063,15.810211 L15.0160727,16.8258845 C15.1318288,16.9419615 15.276524,17 15.4212192,17 C15.5659144,17 15.7106096,16.9419615 15.8263658,16.8258845 C16.0578781,16.5937306 16.0578781,16.2454997 15.8263658,16.0133457 L15.8263658,16.0133457 Z M10.790973,15.7811918 C9.72022855,15.7811918 8.73630123,15.3749224 7.95494718,14.6204221 C7.20253217,13.8659218 6.79738562,12.8502483 6.79738562,11.7765363 C6.79738562,10.7028243 7.20253217,9.71617008 7.95494718,8.93265053 C8.70736219,8.17815022 9.72022855,7.77188082 10.790973,7.77188082 C11.8617174,7.77188082 12.8456448,8.17815022 13.6269988,8.93265053 C14.3794138,9.68715084 14.7845604,10.7028243 14.7845604,11.7765363 C14.7845604,12.8502483 14.3794138,13.8369025 13.6269988,14.6204221 C12.8456448,15.3749224 11.8617174,15.7811918 10.790973,15.7811918 L10.790973,15.7811918 Z"></path>
                                </g>
                            </g>
                        </g>
                    </g>
                </g>
            </g>
        </g>
    </g>
</svg>
