<?xml version="1.0" encoding="UTF-8"?>
<svg width="17px" height="20px" viewBox="0 0 17 20" version="1.1" xmlns="http://www.w3.org/2000/svg" xmlns:xlink="http://www.w3.org/1999/xlink">
    <!-- Generator: Sketch 53.2 (72643) - https://sketchapp.com -->
    <title>通知</title>
    <desc>Created with Sketch.</desc>
    <g id="Page-1" stroke="none" stroke-width="1" fill="none" fill-rule="evenodd">
        <g id="注册" transform="translate(-551.000000, -418.000000)" fill="#CECDCD" fill-rule="nonzero">
            <g id="分组-4" transform="translate(465.000000, 253.000000)">
                <g id="Group-2" transform="translate(65.000000, 50.000000)">
                    <g id="分组" transform="translate(0.000000, 100.000000)">
                        <g id="Group-5" transform="translate(20.000000, 14.000000)">
                            <g id="姓名" transform="translate(0.824219, 0.761719)">
                                <path d="M3.00863487,5.42574439 C3.00863487,8.30803916 5.34232466,10.6419837 8.21916118,10.6419837 C11.0959977,10.6419837 13.4296875,8.30573517 13.4296875,5.42574439 C13.4296875,2.5457536 11.0959977,0.207201087 8.21916118,0.207201087 C5.34232466,0.207201087 3.00863487,2.54344961 3.00863487,5.42574439 Z" id="路径"></path>
                                <path d="M14.7256356,19.0910062 C12.8441879,19.3982854 7.66363244,19.3982854 4.01548865,19.201904 C1.81608348,19.0910062 0.570550772,18.8391759 0.166529605,17.3836429 C0.166529605,14.585785 2.54045279,10.6419837 5.40685148,10.6419837 L7.66363244,11.3143013 C8.29954741,11.4251991 8.93785304,11.4251991 9.57376801,11.3143013 L11.9763791,10.6419837 C14.8714657,10.6419837 17.216701,14.6135095 17.216701,17.3836429 C17.2716861,18.5596212 16.4038773,18.8391759 14.7256356,19.0910062 L14.7256356,19.0910062 Z" id="路径"></path>
                            </g>
                        </g>
                    </g>
                </g>
            </g>
        </g>
    </g>
</svg>