<?xml version="1.0" encoding="UTF-8"?>
<svg width="16px" height="17px" viewBox="0 0 16 17" version="1.1" xmlns="http://www.w3.org/2000/svg" xmlns:xlink="http://www.w3.org/1999/xlink">
    <!-- Generator: Sketch 53.2 (72643) - https://sketchapp.com -->
    <title>项目管理 (2)</title>
    <desc>Created with Sketch.</desc>
    <g id="Page-1" stroke="none" stroke-width="1" fill="none" fill-rule="evenodd">
        <g id="已签约项目" transform="translate(-46.000000, -176.000000)" fill="#FFFFFF" fill-rule="nonzero">
            <g id="我的工作区" transform="translate(0.000000, 118.000000)">
                <g id="分组-copy" transform="translate(46.000000, 58.000000)">
                    <g id="项目管理-(2)" transform="translate(1.000000, 1.000000)">
                        <path d="M13.5742129,0 L3.46626687,0 C3.23088456,0 3.04047976,0.186053326 3.04047976,0.416056255 L3.04047976,2.31028421 L0.425787106,2.31028421 C0.190404798,2.31028421 0,2.49633753 0,2.72634046 L0,14.5839437 C0,14.8139467 0.190404798,15 0.425787106,15 L10.5337331,15 C10.7691154,15 10.9595202,14.8139467 10.9595202,14.5839437 L10.9595202,12.6897158 L13.5742129,12.6897158 C13.8095952,12.6897158 14,12.5036625 14,12.2736595 L14,0.416056255 C14,0.186053326 13.8095952,0 13.5742129,0 Z M10.1364318,14.1971872 L0.823088456,14.1971872 L0.823088456,3.11602696 L10.1364318,3.11602696 L10.1364318,14.1971872 L10.1364318,14.1971872 Z M13.1769115,11.885438 L10.9595202,11.885438 L10.9595202,2.72780545 C10.9595202,2.49780252 10.7691154,2.31174919 10.5337331,2.31174919 L3.86356822,2.31174919 L3.86356822,0.804277762 L13.1769115,0.804277762 L13.1769115,11.885438 Z" id="形状"></path>
                        <path d="M2.33490736,6.84888934 C2.33490736,7.08121052 2.52851232,7.26920725 2.76776399,7.26920725 L7.73381004,7.26920725 C7.9730617,7.26920725 8.16666667,7.08121052 8.16666667,6.84888934 C8.16666667,6.61656817 7.9730617,6.42857143 7.73381004,6.42857143 L2.76618996,6.42857143 C2.52851232,6.42857143 2.33490736,6.61656817 2.33490736,6.84888934 Z M7.73223601,9.87364989 L2.76618996,9.87364989 C2.5269383,9.87364989 2.33333333,10.0616466 2.33333333,10.2939678 C2.33333333,10.526289 2.5269383,10.7142857 2.76618996,10.7142857 L7.73223601,10.7142857 C7.97148768,10.7142857 8.16509264,10.526289 8.16509264,10.2939678 C8.16509264,10.0616466 7.97148768,9.87364989 7.73223601,9.87364989 Z" id="形状"></path>
                    </g>
                </g>
            </g>
        </g>
    </g>
</svg>