<?xml version="1.0" encoding="UTF-8"?>
<svg width="16px" height="17px" viewBox="0 0 16 17" version="1.1" xmlns="http://www.w3.org/2000/svg" xmlns:xlink="http://www.w3.org/1999/xlink">
    <!-- Generator: Sketch 53.2 (72643) - https://sketchapp.com -->
    <title>项目管理 (2)</title>
    <desc>Created with Sketch.</desc>
    <g id="Page-1" stroke="none" stroke-width="1" fill="none" fill-rule="evenodd">
        <g id="已签约项目" transform="translate(-46.000000, -220.000000)" fill="#FFFFFF">
            <g id="我的工作区" transform="translate(0.000000, 118.000000)">
                <g id="分组-2-copy" transform="translate(46.000000, 102.000000)">
                    <g id="审核报表" transform="translate(1.000000, 1.000000)">
                        <path d="M4.31042128,9.08700352 C4.67494456,8.71286393 4.78314855,8.34931321 4.76718404,8.08988621 L4.76629712,8.00605777 C4.77516631,7.90899326 4.61019957,7.559561 4.33791575,7.14924282 C4.19086952,6.92843814 4.03463635,6.71382752 3.86962306,6.5059698 L3.83858094,6.46714398 C3.25003321,5.76692066 2.92678668,4.88360904 2.92505544,3.97082111 C2.92505544,1.84599062 4.65454546,0.10412376 6.86297118,0 L7.15920178,0 C9.34545454,0.103241349 11.0776053,1.84422582 11.0776053,3.97082111 C11.0776053,4.87969795 10.7556541,5.76033782 10.172949,6.45214311 C9.99901053,6.6694781 9.83448503,6.89410788 9.67982261,7.12541789 C9.60620842,7.23660088 9.53791573,7.34425425 9.47937916,7.4457308 C9.31618625,7.72457069 9.23104213,7.94605426 9.23547671,8.00870498 L9.23458981,8.09694546 C9.21862528,8.35107801 9.32594236,8.71462875 9.69046562,9.08700352 C9.79246119,9.19200967 9.91219512,9.29260381 10.0496674,9.3870211 L12.1135255,9.3870211 C13.4288248,9.38613869 14,9.87410849 14,11.030941 L14,13.6534478 C14.0000015,14.3834232 13.4059914,14.9755949 12.6722838,14.9770548 L1.33303769,14.9999973 C0.979739008,15.0007004 0.640668473,14.8615597 0.390598632,14.613259 C0.14052879,14.3649583 -7.0659949e-07,14.0278919 0,13.6763903 L0,11.0300587 C0,9.87763812 0.57915742,9.38702112 1.88736142,9.3852563 L3.95210643,9.3852563 C4.08957871,9.29083901 4.20842573,9.19112726 4.30953438,9.08700352 L4.31042128,9.08700352 Z M4.94545455,9.70203958 C4.75814802,9.89128213 4.54918219,10.0580187 4.32283815,10.1988334 L4.21463414,10.267661 L1.88824835,10.267661 C1.04035479,10.2694258 0.886917966,10.3991393 0.886917966,11.0300587 L0.886917966,13.6755079 C0.886917961,13.792522 0.933639394,13.9047436 1.01680408,13.9874851 C1.09996878,14.0702266 1.2127643,14.1167103 1.33037694,14.1167103 L12.67051,14.0937677 C12.7881226,14.0937677 12.9009181,14.047284 12.9840828,13.9645426 C13.0672475,13.8818011 13.113969,13.7695795 13.113969,13.6525654 L13.113969,11.0300587 C13.113969,10.3929625 12.9667406,10.2685434 12.1144124,10.2694258 L9.78802661,10.2694258 L9.6789357,10.2005982 C9.45148925,10.059168 9.24161229,9.89152851 9.05365854,9.70115719 C8.50022173,9.13377096 8.3201774,8.52932376 8.34944567,8.04135396 C8.33791573,7.7475132 8.47184035,7.41484664 8.71308205,7.00188122 C8.78137472,6.883639 8.85764968,6.76186715 8.94101995,6.63656568 C9.11276914,6.38023029 9.29564718,6.13145104 9.48913525,5.89093372 C9.94146341,5.35266686 10.1898004,4.67145045 10.1898004,3.96993872 C10.1898004,2.32248915 8.83725055,0.962703532 7.13880265,0.882404698 L6.88337028,0.882404698 C5.16274945,0.963585923 3.81197338,2.32425396 3.8119734,3.97082111 C3.8119734,4.66968562 4.05853659,5.34737243 4.50909092,5.88916892 C4.57291487,5.96556734 4.63443518,6.04384199 4.69356984,6.12388856 C4.82483371,6.29683989 4.95609755,6.47949766 5.07760532,6.66215543 C5.45365855,7.23042404 5.66740576,7.6725088 5.65232816,8.04135396 C5.68070953,8.53020615 5.50066519,9.13377096 4.94545455,9.70203958 L4.94545455,9.70203958 Z" id="形状" fill-rule="nonzero"></path>
                        <polygon id="路径" points="3.5 11.7857143 9.33333333 11.7857143 9.33333333 12.8571429 3.5 12.8571429"></polygon>
                    </g>
                </g>
            </g>
        </g>
    </g>
</svg>