<?xml version="1.0" encoding="UTF-8"?>
<svg width="151px" height="25px" viewBox="0 0 151 25" version="1.1" xmlns="http://www.w3.org/2000/svg" xmlns:xlink="http://www.w3.org/1999/xlink">
    <!-- Generator: Sketch 53.2 (72643) - https://sketchapp.com -->
    <title>导航</title>
    <desc>Created with Sketch.</desc>
    <g id="Page-1" stroke="none" stroke-width="1" fill="none" fill-rule="evenodd">
        <g id="运营管理-新建合同（费用服务）" transform="translate(-39.000000, -25.000000)" fill="#FFFFFF">
            <g id="导航">
                <g id="分组-6" transform="translate(39.000000, 25.000000)">
                    <g id="logo">
                        <polygon id="Fill-1" points="44.2045975 0.497346088 46.6045844 5.39673943 55.220279 5.39673943 55.220279 19.797158 48.4696944 19.797158 50.8691842 24.6965514 60.7514833 24.6965514 60.7514833 0.497346088"></polygon>
                        <polygon id="Fill-2" points="30.4335541 0.497346088 39.8863609 19.797158 34.3611217 19.797158 24.9083149 0.497346088 13.0555212 24.6965514 28.170269 24.6965514 25.7702821 19.797158 20.9867125 19.797158 24.9083149 11.7914022 31.2289101 24.6965514 47.8175521 24.6965514 35.9652555 0.497346088"></polygon>
                        <polygon id="Fill-3" points="0 0.497346088 0 24.6965514 9.89273812 24.6965514 12.292725 19.797158 5.53170141 19.797158 5.53170141 5.39673943 14.147396 5.39673943 16.5468858 0.497346088"></polygon>
                        <g id="分组" transform="translate(65.119778, 0.338772)">
                            <path d="M30.9898062,3.05769667 L41.0957992,3.05769667 L39.9390532,6.13522754 L37.9879454,6.13522754 L33.3231821,6.13522754 C31.6211201,6.13522754 30.9898062,7.09363159 30.9898062,8.47407146 L30.9898062,24.3235294 L33.3231821,24.3235294 L33.3231821,8.98210514 C33.3231821,8.71267828 33.6149783,8.47407146 33.8863936,8.47407146 L37.9879454,8.47407146 L37.9879454,23.5838483 L40.3238067,23.5838483 L40.3238067,8.47407146 L44.9761426,8.47407146 L44.9761426,23.5838483 L47.3194604,23.5838483 L47.3194604,8.47407146 L51.297732,8.47407146 C51.7853847,8.47407146 51.9837266,8.82601652 51.9837266,9.15807767 L51.9837266,21.2653853 C51.9837266,21.7202296 51.7575472,22.007552 51.2042777,22.007552 L49.1070231,22.007552 L49.1070231,24.3235294 L51.9837266,24.3235294 C53.4799902,24.3235294 54.3126286,23.7294978 54.3126286,22.007552 L54.3126286,8.47407146 C54.3126286,6.99769177 53.6405527,6.13522754 51.9837266,6.13522754 L47.3194604,6.13522754 L44.9761426,6.13522754 L42.6402813,6.13522754 L43.7915592,3.05769667 L54.3126286,3.05769667 L54.3126286,0.741719238 L30.9898062,0.741719238 L30.9898062,3.05769667 Z" id="Fill-4"></path>
                            <g id="Fill-6">
                                <path d="M21.2867108,9.10275072 C21.6868743,9.10275072 21.833021,9.46712321 21.833021,9.72362554 L21.833021,14.3028881 C21.833021,14.695098 21.6113155,14.9441439 21.2320301,14.9441439 L3.69840569,14.9441439 C3.3539171,14.9441439 3.1704881,14.7229355 3.1704881,14.3655224 L3.1704881,9.59835696 C3.1704881,9.27872324 3.35143161,9.10275072 3.75358352,9.10275072 L21.2867108,9.10275072 Z M13.4942098,0.158474695 L11.155863,0.158474695 L11.155863,2.0166253 L0.215740332,2.0166253 L0.215740332,4.34254468 L11.155863,4.34254468 L11.155863,6.75893582 L4.14579348,6.75893582 L3.1704881,6.75893582 C1.64887254,6.75893582 0.839100646,7.55876576 0.839100646,9.10275072 L0.839100646,14.9441439 C0.839100646,16.417541 1.48284196,17.2750343 3.1704881,17.2750343 L8.25132205,17.2750343 C8.25132205,17.2750343 7.45745728,19.6034391 7.01504047,20.7626706 C6.66806639,21.733005 6.35638623,22.0074028 5.10370043,22.0074028 L0.562714414,22.0074028 L0.562714414,24.3233803 L5.67486551,24.3233803 C6.97974655,24.3233803 8.59630774,23.6294321 9.15206279,22.0074028 C9.82264737,20.035914 10.7283591,17.2750343 10.7283591,17.2750343 L14.7240291,17.2750343 L14.7240291,22.0074028 C14.7240291,23.470858 15.3319794,24.3233803 17.0549195,24.3233803 L24.7823007,24.3233803 L24.7823007,22.0074028 L17.8974998,22.0074028 C17.2940234,22.0074028 17.0549195,21.6703707 17.0549195,21.1802325 L17.0549195,17.2750343 L21.833021,17.2750343 C23.5345859,17.2750343 24.1584433,16.5731325 24.1584433,14.9441439 L24.1584433,9.10275072 C24.1584433,7.44791301 23.5345859,6.75893582 21.833021,6.75893582 L13.4942098,6.75893582 L13.4942098,4.34254468 L24.7823007,4.34254468 L24.7823007,2.0166253 L13.4942098,2.0166253 L13.4942098,0.158474695 Z"></path>
                            </g>
                            <g transform="translate(69.593655, 9.941951)" id="Fill-8">
                                <path d="M13.0491584,4.44390287 L10.8619292,4.44390287 L8.54098079,4.44390287 L7.33104538,4.44390287 L7.9723012,2.74631477 L15.0181617,2.74631477 L15.0181617,0.433319925 L0.355772709,0.433319925 L0.355772709,2.74631477 L5.47040929,2.74631477 L4.82915346,4.44390287 L2.56338288,4.44390287 C0.986589486,4.44390287 0.237960592,5.41672275 0.237960592,6.76982225 L0.237960592,14.3813798 L2.56338288,14.3813798 L2.56338288,6.76982225 L4.47472292,6.76982225 L4.47472292,14.0065682 L6.80362489,14.0065682 L6.80362489,6.76982225 L8.62151059,6.76982225 L8.62151059,14.0065682 L10.9623429,14.0065682 L10.9623429,6.76982225 L13.0491584,6.76982225 L13.0491584,11.3237328 C13.0491584,11.7785771 12.8204935,12.0654023 12.2851195,12.0654023 L12.0007797,12.0654023 L12.0007797,14.3813798 L13.0491584,14.3813798 C14.5429365,14.3813798 15.3780603,13.7878453 15.3780603,12.0654023 L15.3780603,6.76982225 C15.3780603,5.21589535 14.7064816,4.44390287 13.0491584,4.44390287"></path>
                            </g>
                            <polygon id="Fill-10" points="66.0769389 12.6884644 68.9387295 12.6884644 68.9387295 10.3749724 66.0769389 10.3749724 66.0769389 3.05769667 69.0918355 3.05769667 69.0918355 0.741719238 66.0769389 0.741719238 63.7614586 0.741719238 60.5198855 0.741719238 60.5198855 3.05769667 63.7614586 3.05769667 63.7614586 10.3749724 60.5198855 10.3749724 60.5198855 12.6884644 63.7614586 12.6884644 63.7614586 22.007552 60.5198855 22.007552 60.5198855 24.3235294 63.7614586 24.3235294 66.0769389 24.3235294 69.2354967 24.3235294 69.2354967 22.007552 66.0769389 22.007552"></polygon>
                            <path d="M72.1571378,9.10275072 L76.0474231,9.10275072 L78.380799,9.10275072 L82.2780437,9.10275072 C83.86975,9.10275072 84.6119166,8.5798041 84.6119166,6.75893582 L84.6119166,0.742067206 L82.2780437,0.742067206 L82.2780437,6.21610531 C82.2780437,6.47757861 82.0598178,6.75893582 81.760068,6.75893582 L78.380799,6.75893582 L78.380799,0.301638787 L76.0474231,0.301638787 L76.0474231,6.75893582 L72.6045255,6.75893582 C72.2630195,6.75893582 72.1571378,6.54766936 72.1571378,6.37169684 L72.1571378,0.742067206 L69.8312184,0.742067206 L69.8312184,6.75893582 C69.8312184,8.48684686 70.7369301,9.10275072 72.1571378,9.10275072" id="Fill-12"></path>
                        </g>
                    </g>
                </g>
            </g>
        </g>
    </g>
</svg>