<?xml version="1.0" encoding="UTF-8"?>
<svg width="16px" height="17px" viewBox="0 0 16 17" version="1.1" xmlns="http://www.w3.org/2000/svg" xmlns:xlink="http://www.w3.org/1999/xlink">
    <!-- Generator: Sketch 53.2 (72643) - https://sketchapp.com -->
    <title>项目管理 (2)</title>
    <desc>Created with Sketch.</desc>
    <g id="Page-1" stroke="none" stroke-width="1" fill="none" fill-rule="evenodd">
        <g id="已签约项目" transform="translate(-46.000000, -264.000000)" fill="#FFFFFF" fill-rule="nonzero">
            <g id="我的工作区" transform="translate(0.000000, 118.000000)">
                <g id="分组-2-copy-2" transform="translate(46.000000, 146.000000)">
                    <g id="审核" transform="translate(1.000000, 1.000000)">
                        <path d="M12.5295465,15 L0.470453503,15 C0.210632155,15 0,14.8019597 0,14.5576708 L0,4.23292273 C0,4.1243673 0.0416619241,4.025 0.110681618,3.94802911 C0.142344932,3.90138857 0.180928072,3.85663493 0.226216667,3.81535835 L4.18934081,0.203796192 C4.2729922,0.0812597952 4.419071,0 4.58543289,0 L12.5295465,0 C12.7893678,0 13,0.198040311 13,0.442329226 L13,14.5576708 C13,14.8019597 12.7893678,15 12.5295465,15 Z M4.76408611,0.91203247 L1.39027942,3.98656214 L4.76408611,3.98656214 L4.76408611,0.91203247 Z M12.059093,0.884658451 L5.70499314,0.884658451 L5.70499314,4.42889137 C5.70499314,4.67318028 5.49436097,4.87122061 5.23453962,4.87122061 C5.22554146,4.87122061 5.21661475,4.87092945 5.20774164,4.87045912 C5.19886853,4.87092945 5.18994182,4.87122061 5.18094365,4.87122061 L0.940907005,4.87122061 L0.940907005,14.1153415 L12.059093,14.1153415 L12.059093,0.884658451 Z M5.65679249,10.4194849 L8.84993312,7.41475924 L9.65277691,8.16926092 L6.45961246,11.1740034 L6.45971965,11.1741041 L5.65798351,11.9288802 L3.35121896,9.76090706 L4.15296106,9.00613102 L5.65679249,10.4194849 Z" id="形状"></path>
                    </g>
                </g>
            </g>
        </g>
    </g>
</svg>