<?xml version="1.0" encoding="UTF-8"?>
<svg width="16px" height="16px" viewBox="0 0 16 16" version="1.1" xmlns="http://www.w3.org/2000/svg" xmlns:xlink="http://www.w3.org/1999/xlink">
    <!-- Generator: Sketch 53.2 (72643) - https://sketchapp.com -->
    <title>项目管理 (2)</title>
    <desc>Created with Sketch.</desc>
    <g id="Page-1" stroke="none" stroke-width="1" fill="none" fill-rule="evenodd">
        <g id="已签约项目" transform="translate(-45.000000, -308.000000)" fill="#FFFFFF" fill-rule="nonzero">
            <g id="我的工作区" transform="translate(0.000000, 118.000000)">
                <g id="Group-3-Copy-2" transform="translate(45.000000, 187.000000)">
                    <g id="分组-3" transform="translate(0.000000, 3.000000)">
                        <g id="权限资源管理" transform="translate(1.000000, 0.000000)">
                            <rect id="矩形" x="2.8125" y="10.7359835" width="4.08153534" height="1" rx="0.5"></rect>
                            <path d="M3.28308824,7.52941176 L9.98542068,7.52941176 C10.2453194,7.52941176 10.4560089,7.74010129 10.4560089,8 L10.4560089,8 C10.4560089,8.25989871 10.2453194,8.47058824 9.98542068,8.47058824 L3.28308824,8.47058824 C3.02318953,8.47058824 2.8125,8.25989871 2.8125,8 L2.8125,8 C2.8125,7.74010129 3.02318953,7.52941176 3.28308824,7.52941176 Z" id="矩形"></path>
                            <path d="M3.28308824,4.23529412 L9.98542068,4.23529412 C10.2453194,4.23529412 10.4560089,4.44598365 10.4560089,4.70588235 L10.4560089,4.70588235 C10.4560089,4.96578106 10.2453194,5.17647059 9.98542068,5.17647059 L3.28308824,5.17647059 C3.02318953,5.17647059 2.8125,4.96578106 2.8125,4.70588235 L2.8125,4.70588235 C2.8125,4.44598365 3.02318953,4.23529412 3.28308824,4.23529412 Z" id="矩形-copy"></path>
                            <path d="M8.35716248,14.5882353 C8.61604595,14.5882353 8.82591248,14.7989248 8.82591248,15.0588235 C8.82591248,15.3187222 8.61604595,15.5294118 8.35716248,15.5294118 L1.875,15.5294118 C1.09834957,15.5294118 0.46875,14.8973432 0.46875,14.1176471 L0.46875,1.88235294 C0.46875,1.10265682 1.09834957,0.470588235 1.875,0.470588235 L12.1875,0.470588235 C12.9641504,0.470588235 13.59375,1.10265682 13.59375,1.88235294 L13.59375,8.90728401 C13.59375,9.16718271 13.3838835,9.37787224 13.125,9.37787224 C12.8661165,9.37787224 12.65625,9.16718271 12.65625,8.90728401 L12.65625,1.88235294 C12.65625,1.62245424 12.4463835,1.41176471 12.1875,1.41176471 L1.875,1.41176471 C1.61611652,1.41176471 1.40625,1.62245424 1.40625,1.88235294 L1.40625,14.1176471 C1.40625,14.3775458 1.61611652,14.5882353 1.875,14.5882353 L8.35716248,14.5882353 Z" id="路径"></path>
                            <path d="M14.25095,12.5369825 C15.0930658,13.1878982 15.2480005,14.403794 14.5990975,15.2485216 C14.2199631,15.7421935 13.6494387,16 13.0716233,16 C12.6596792,16 12.2459124,15.8683541 11.8959421,15.5977488 C11.1978245,15.056538 10.9718021,14.1277033 11.285317,13.3451418 L8.01710567,10.8127875 L9.22559655,9.24400766 C9.40969546,9.00448533 9.75419738,8.96060338 9.99297914,9.14527326 C10.2317609,9.32994315 10.2755072,9.67551353 10.0914083,9.91503585 L9.55187086,10.6153187 L10.2481658,11.154701 L10.7877032,10.4525898 C10.9718021,10.2130675 11.316304,10.1691855 11.5550857,10.3538554 C11.7938675,10.5385253 11.8376138,10.8840956 11.6535149,11.123618 L11.1139775,11.8257292 L11.9652071,12.4857869 C12.6378061,12.0122275 13.5674144,12.0067423 14.25095,12.5369825 Z M13.7332857,14.5774934 C14.013991,14.2118104 13.9465488,13.6870554 13.5838193,13.4018227 C13.4361756,13.288461 13.2593678,13.2281233 13.0752688,13.2281233 C13.0406364,13.2281233 13.0041811,13.2299517 12.9677259,13.235437 C12.7471718,13.2628632 12.5503135,13.3762249 12.4136064,13.5535811 C12.1310784,13.9192641 12.1985206,14.4458475 12.5630729,14.7274234 C12.7398807,14.8645545 12.9586121,14.9248922 13.1791662,14.8956375 C13.3997204,14.8682113 13.5965786,14.7548496 13.7332857,14.5774934 Z" id="合并形状"></path>
                        </g>
                    </g>
                </g>
            </g>
        </g>
    </g>
</svg>