<?xml version="1.0" encoding="UTF-8"?>
<svg width="16px" height="17px" viewBox="0 0 16 17" version="1.1" xmlns="http://www.w3.org/2000/svg" xmlns:xlink="http://www.w3.org/1999/xlink">
    <!-- Generator: Sketch 53.2 (72643) - https://sketchapp.com -->
    <title>项目管理 (2)</title>
    <desc>Created with Sketch.</desc>
    <g id="Page-1" stroke="none" stroke-width="1" fill="none" fill-rule="evenodd">
        <g id="已签约项目" transform="translate(-46.000000, -132.000000)" fill="#FFFFFF" fill-rule="nonzero">
            <g id="我的工作区" transform="translate(0.000000, 118.000000)">
                <g id="分组" transform="translate(46.000000, 14.000000)">
                    <g id="项目" transform="translate(1.000000, 2.000000)">
                        <path d="M11.398617,5.97515528 L5.35422708,5.97515528 C5.17622128,5.97515528 5.02319875,6.13664596 5.02319875,6.32450247 C5.02319875,6.51235898 5.17622128,6.67384966 5.35422708,6.67384966 L11.398617,6.67384966 C11.5766228,6.67384966 11.7296453,6.51235898 11.7296453,6.32450247 C11.7296453,6.11028014 11.5766228,5.97515528 11.398617,5.97515528 L11.398617,5.97515528 Z M11.398617,8.91000127 L5.35422708,8.91000127 C5.17622128,8.91000127 5.02319875,9.07149195 5.02319875,9.25934846 C5.02319875,9.44720497 5.17622128,9.60869565 5.35422708,9.60869565 L11.398617,9.60869565 C11.5766228,9.60869565 11.7296453,9.44720497 11.7296453,9.25934846 C11.7296453,9.07149195 11.5766228,8.91000127 11.398617,8.91000127 L11.398617,8.91000127 Z M13.1333928,2.12739257 L8.797234,2.12739257 L8.72072273,1.91152237 C8.21012715,0.403726708 7.2154807,0.0280136899 6.47691278,0 L0.866607183,0 C0.382556324,0 0,0.403726708 0,0.888198758 L0,12.1118012 C0,12.5962733 0.382556324,13 0.866607183,13 L13.1333928,13 C13.6174437,13 14,12.5962733 14,12.1118012 L14,3.01559133 C14,2.53111928 13.6174437,2.12739257 13.1333928,2.12739257 Z M0.866607183,1.29357333 C0.866607183,0.593231081 1.09614098,0.701990113 2.06580415,0.701990113 L5.53379433,0.701990113 C7.01249164,0.701990113 7.39504796,1.05133731 7.67610975,1.56382304 L7.88066027,2.10267461 L0.866607183,2.10267461 L0.866607183,1.29357333 Z M13.1833594,11.1428571 C13.1833594,12.1661808 12.852331,12.1925466 12.0356904,12.1925466 L2.01427615,12.1925466 C1.01962971,12.1925466 0.866607183,12.1118012 0.866607183,10.9813665 L0.866607183,2.96121181 L12.2402409,2.96121181 C13.3113986,2.96121181 13.1833594,3.39130435 13.1833594,4.17239194 L13.1833594,11.1428571 L13.1833594,11.1428571 Z M2.26879322,5.70655343 L3.33995093,5.70655343 L3.33995093,6.83698821 L2.26879322,6.83698821 L2.26879322,5.70655343 L2.26879322,5.70655343 Z M2.26879322,8.69413107 L3.33995093,8.69413107 L3.33995093,9.82456585 L2.26879322,9.82456585 L2.26879322,8.69413107 L2.26879322,8.69413107 Z" id="形状"></path>
                    </g>
                </g>
            </g>
        </g>
    </g>
</svg>